# Blender 3.5.1
# www.blender.org
o Plane
v -25.000000 0.000000 25.000000
v 25.000000 0.000000 25.000000
v -25.000000 0.000000 -25.000000
v 25.000000 0.000000 -25.000000
vn -0.0000 1.0000 -0.0000
s 0
f 2//1 3//1 1//1
f 2//1 4//1 3//1
o Cube
v -5.000000 0.000000 -15.000000
v -5.000000 1.200000 -15.000000
v -5.000000 0.000000 -25.000000
v -5.000000 1.200000 -25.000000
v 25.000000 0.000000 -15.000000
v 25.000000 1.200000 -15.000000
v 25.000000 0.000000 -25.000000
v 25.000000 1.200000 -25.000000
vn -1.0000 -0.0000 -0.0000
vn -0.0000 -0.0000 -1.0000
vn 1.0000 -0.0000 -0.0000
vn -0.0000 -0.0000 1.0000
vn -0.0000 -1.0000 -0.0000
vn -0.0000 1.0000 -0.0000
s 0
f 6//2 7//2 5//2
f 8//3 11//3 7//3
f 12//4 9//4 11//4
f 10//5 5//5 9//5
f 11//6 5//6 7//6
f 8//7 10//7 12//7
f 6//2 8//2 7//2
f 8//3 12//3 11//3
f 12//4 10//4 9//4
f 10//5 6//5 5//5
f 11//6 9//6 5//6
f 8//7 6//7 10//7
o Cube.001
v 5.000000 0.000000 0.050000
v 5.000000 4.000000 0.050000
v 5.000000 0.000000 -0.050000
v 5.000000 4.000000 -0.050000
v 25.000000 0.000000 0.050000
v 25.000000 4.000000 0.050000
v 25.000000 0.000000 -0.050000
v 25.000000 4.000000 -0.050000
vn -1.0000 -0.0000 -0.0000
vn -0.0000 -0.0000 -1.0000
vn 1.0000 -0.0000 -0.0000
vn -0.0000 -0.0000 1.0000
vn -0.0000 -1.0000 -0.0000
vn -0.0000 1.0000 -0.0000
s 0
f 14//8 15//8 13//8
f 16//9 19//9 15//9
f 20//10 17//10 19//10
f 18//11 13//11 17//11
f 19//12 13//12 15//12
f 16//13 18//13 20//13
f 14//8 16//8 15//8
f 16//9 20//9 19//9
f 20//10 18//10 17//10
f 18//11 14//11 13//11
f 19//12 17//12 13//12
f 16//13 14//13 18//13
o Cube.002
v -25.000000 0.000000 0.050000
v -25.000000 4.000000 0.050000
v -25.000000 0.000000 -0.050000
v -25.000000 4.000000 -0.050000
v -5.000000 0.000000 0.050000
v -5.000000 4.000000 0.050000
v -5.000000 0.000000 -0.050000
v -5.000000 4.000000 -0.050000
vn -1.0000 -0.0000 -0.0000
vn -0.0000 -0.0000 -1.0000
vn 1.0000 -0.0000 -0.0000
vn -0.0000 -0.0000 1.0000
vn -0.0000 -1.0000 -0.0000
vn -0.0000 1.0000 -0.0000
s 0
f 22//14 23//14 21//14
f 24//15 27//15 23//15
f 28//16 25//16 27//16
f 26//17 21//17 25//17
f 27//18 21//18 23//18
f 24//19 26//19 28//19
f 22//14 24//14 23//14
f 24//15 28//15 27//15
f 28//16 26//16 25//16
f 26//17 22//17 21//17
f 27//18 25//18 21//18
f 24//19 22//19 26//19
o Torus
v 8.144470 0.000000 0.000000
v 7.667378 -0.000000 1.151802
v 6.515576 -0.000000 1.628894
v 5.363774 -0.000000 1.151802
v 4.886683 -0.000000 0.000000
v 5.363774 0.000000 -1.151802
v 6.515576 0.000000 -1.628894
v 7.667378 0.000000 -1.151802
v 7.053318 4.072236 0.000000
v 6.640144 3.833690 1.151802
v 5.642654 3.257789 1.628894
v 4.645164 2.681888 1.151802
v 4.231990 2.443342 0.000000
v 4.645164 2.681888 -1.151802
v 5.642654 3.257789 -1.628894
v 6.640144 3.833690 -1.151802
v 4.072235 7.053319 0.000000
v 3.833689 6.640145 1.151802
v 3.257788 5.642655 1.628894
v 2.681887 4.645165 1.151802
v 2.443341 4.231991 0.000000
v 2.681887 4.645165 -1.151802
v 3.257788 5.642655 -1.628894
v 3.833689 6.640145 -1.151802
v 0.000001 8.144470 0.000000
v 0.000001 7.667378 1.151802
v 0.000000 6.515576 1.628894
v 0.000000 5.363774 1.151802
v 0.000000 4.886683 0.000000
v 0.000000 5.363774 -1.151802
v 0.000000 6.515576 -1.628894
v 0.000001 7.667378 -1.151802
v -4.072234 7.053319 0.000000
v -3.833688 6.640145 1.151802
v -3.257787 5.642655 1.628894
v -2.681886 4.645165 1.151802
v -2.443340 4.231992 0.000000
v -2.681886 4.645165 -1.151802
v -3.257787 5.642655 -1.628894
v -3.833688 6.640145 -1.151802
v -7.053317 4.072237 0.000000
v -6.640143 3.833691 1.151802
v -5.642654 3.257790 1.628894
v -4.645164 2.681889 1.151802
v -4.231990 2.443342 0.000000
v -4.645164 2.681889 -1.151802
v -5.642654 3.257790 -1.628894
v -6.640143 3.833691 -1.151802
v -8.144470 0.000001 0.000000
v -7.667378 0.000001 1.151802
v -6.515576 0.000000 1.628894
v -5.363774 0.000000 1.151802
v -4.886683 0.000000 0.000000
v -5.363774 0.000001 -1.151802
v -6.515576 0.000001 -1.628894
v -7.667378 0.000001 -1.151802
vn 0.8968 0.2403 0.3715
vn 0.3807 0.1020 0.9191
vn -0.3807 -0.1020 0.9191
vn -0.8968 -0.2403 0.3715
vn -0.8968 -0.2403 -0.3715
vn -0.3807 -0.1020 -0.9191
vn 0.3807 0.1020 -0.9191
vn 0.8968 0.2403 -0.3715
vn 0.6565 0.6565 0.3715
vn 0.2787 0.2787 0.9191
vn -0.2787 -0.2787 0.9191
vn -0.6565 -0.6565 0.3715
vn -0.6565 -0.6565 -0.3715
vn -0.2787 -0.2787 -0.9191
vn 0.2787 0.2787 -0.9191
vn 0.6565 0.6565 -0.3715
vn 0.2403 0.8968 0.3715
vn 0.1020 0.3807 0.9191
vn -0.1020 -0.3807 0.9191
vn -0.2403 -0.8968 0.3715
vn -0.2403 -0.8968 -0.3715
vn -0.1020 -0.3807 -0.9191
vn 0.1020 0.3807 -0.9191
vn 0.2403 0.8968 -0.3715
vn -0.2403 0.8968 0.3715
vn -0.1020 0.3807 0.9191
vn 0.1020 -0.3807 0.9191
vn 0.2403 -0.8968 0.3715
vn 0.2403 -0.8968 -0.3715
vn 0.1020 -0.3807 -0.9191
vn -0.1020 0.3807 -0.9191
vn -0.2403 0.8968 -0.3715
vn -0.6565 0.6565 0.3715
vn -0.2787 0.2787 0.9191
vn 0.2787 -0.2787 0.9191
vn 0.6565 -0.6565 0.3715
vn 0.6565 -0.6565 -0.3715
vn 0.2787 -0.2787 -0.9191
vn -0.2787 0.2787 -0.9191
vn -0.6565 0.6565 -0.3715
vn -0.8968 0.2403 0.3715
vn -0.3807 0.1020 0.9191
vn 0.3807 -0.1020 0.9191
vn 0.8968 -0.2403 0.3715
vn 0.8968 -0.2403 -0.3715
vn 0.3807 -0.1020 -0.9191
vn -0.3807 0.1020 -0.9191
vn -0.8968 0.2403 -0.3715
s 0
f 29//20 38//20 30//20
f 38//21 31//21 30//21
f 39//22 32//22 31//22
f 40//23 33//23 32//23
f 41//24 34//24 33//24
f 42//25 35//25 34//25
f 43//26 36//26 35//26
f 36//27 37//27 29//27
f 45//28 38//28 37//28
f 46//29 39//29 38//29
f 47//30 40//30 39//30
f 48//31 41//31 40//31
f 49//32 42//32 41//32
f 50//33 43//33 42//33
f 51//34 44//34 43//34
f 44//35 45//35 37//35
f 53//36 46//36 45//36
f 54//37 47//37 46//37
f 55//38 48//38 47//38
f 56//39 49//39 48//39
f 57//40 50//40 49//40
f 58//41 51//41 50//41
f 59//42 52//42 51//42
f 60//43 45//43 52//43
f 53//44 62//44 54//44
f 62//45 55//45 54//45
f 55//46 64//46 56//46
f 64//47 57//47 56//47
f 65//48 58//48 57//48
f 66//49 59//49 58//49
f 67//50 60//50 59//50
f 68//51 53//51 60//51
f 61//52 70//52 62//52
f 62//53 71//53 63//53
f 71//54 64//54 63//54
f 72//55 65//55 64//55
f 65//56 74//56 66//56
f 74//57 67//57 66//57
f 75//58 68//58 67//58
f 76//59 61//59 68//59
f 77//60 70//60 69//60
f 78//61 71//61 70//61
f 79//62 72//62 71//62
f 72//63 81//63 73//63
f 81//64 74//64 73//64
f 82//65 75//65 74//65
f 83//66 76//66 75//66
f 84//67 69//67 76//67
f 29//20 37//20 38//20
f 38//21 39//21 31//21
f 39//22 40//22 32//22
f 40//23 41//23 33//23
f 41//24 42//24 34//24
f 42//25 43//25 35//25
f 43//26 44//26 36//26
f 36//27 44//27 37//27
f 45//28 46//28 38//28
f 46//29 47//29 39//29
f 47//30 48//30 40//30
f 48//31 49//31 41//31
f 49//32 50//32 42//32
f 50//33 51//33 43//33
f 51//34 52//34 44//34
f 44//35 52//35 45//35
f 53//36 54//36 46//36
f 54//37 55//37 47//37
f 55//38 56//38 48//38
f 56//39 57//39 49//39
f 57//40 58//40 50//40
f 58//41 59//41 51//41
f 59//42 60//42 52//42
f 60//43 53//43 45//43
f 53//44 61//44 62//44
f 62//45 63//45 55//45
f 55//46 63//46 64//46
f 64//47 65//47 57//47
f 65//48 66//48 58//48
f 66//49 67//49 59//49
f 67//50 68//50 60//50
f 68//51 61//51 53//51
f 61//52 69//52 70//52
f 62//53 70//53 71//53
f 71//54 72//54 64//54
f 72//55 73//55 65//55
f 65//56 73//56 74//56
f 74//57 75//57 67//57
f 75//58 76//58 68//58
f 76//59 69//59 61//59
f 77//60 78//60 70//60
f 78//61 79//61 71//61
f 79//62 80//62 72//62
f 72//63 80//63 81//63
f 81//64 82//64 74//64
f 82//65 83//65 75//65
f 83//66 84//66 76//66
f 84//67 77//67 69//67
o Cube.003
v -25.000000 4.000000 25.000000
v -25.000000 4.500000 25.000000
v -25.000000 4.000000 0.000000
v -25.000000 4.500000 0.000000
v -10.000000 4.000000 25.000000
v -10.000000 4.500000 25.000000
v -10.000000 4.000000 0.000000
v -10.000000 4.500000 0.000000
vn -1.0000 -0.0000 -0.0000
vn -0.0000 -0.0000 -1.0000
vn 1.0000 -0.0000 -0.0000
vn -0.0000 -0.0000 1.0000
vn -0.0000 -1.0000 -0.0000
vn -0.0000 1.0000 -0.0000
s 0
f 86//68 87//68 85//68
f 88//69 91//69 87//69
f 92//70 89//70 91//70
f 90//71 85//71 89//71
f 91//72 85//72 87//72
f 88//73 90//73 92//73
f 86//68 88//68 87//68
f 88//69 92//69 91//69
f 92//70 90//70 89//70
f 90//71 86//71 85//71
f 91//72 89//72 85//72
f 88//73 86//73 90//73
