# Blender 3.5.1
# www.blender.org
o Cube
v -0.250000 0.524142 0.200000
v -0.239835 0.539142 0.191868
v -0.250000 0.524142 -0.200000
v -0.239835 0.539142 -0.191868
v 0.250000 0.524142 0.200000
v 0.239835 0.539142 0.191868
v 0.250000 0.524142 -0.200000
v 0.239835 0.539142 -0.191868
v -0.250000 0.539142 0.200000
v -0.250000 0.539142 -0.200000
v 0.250000 0.539142 -0.200000
v 0.250000 0.539142 0.200000
v -0.239835 0.529545 0.191868
v -0.239835 0.529545 -0.191868
v 0.239835 0.529545 -0.191868
v 0.239835 0.529545 0.191868
v 0.150000 0.010000 -0.150000
v 0.150000 -0.010000 -0.150000
v 0.150000 0.010000 0.150000
v 0.150000 -0.010000 0.150000
v -0.150000 0.010000 -0.150000
v -0.150000 -0.010000 -0.150000
v -0.150000 0.010000 0.150000
v -0.150000 -0.010000 0.150000
v 0.106065 0.024142 -0.106065
v 0.106065 0.010000 -0.106065
v 0.106065 0.024142 0.106065
v 0.106065 0.010000 0.106065
v -0.106065 0.024142 -0.106065
v -0.106065 0.010000 -0.106065
v -0.106065 0.024142 0.106065
v -0.106065 0.010000 0.106065
v 0.074999 0.524142 -0.074999
v 0.074999 0.024142 -0.074999
v 0.074999 0.524142 0.074999
v 0.074999 0.024142 0.074999
v -0.074999 0.524142 -0.074999
v -0.074999 0.024142 -0.074999
v -0.074999 0.524142 0.074999
v -0.074999 0.024142 0.074999
vn -1.0000 -0.0000 -0.0000
vn -0.0000 -0.0000 -1.0000
vn 1.0000 -0.0000 -0.0000
vn -0.0000 -0.0000 1.0000
vn -0.0000 -1.0000 -0.0000
vn -0.0000 1.0000 -0.0000
vt 0.375000 0.000000
vt 0.375000 1.000000
vt 0.125000 0.750000
vt 0.869917 0.744917
vt 0.125000 0.500000
vt 0.375000 0.250000
vt 0.869917 0.505083
vt 0.375000 0.750000
vt 0.630083 0.744917
vt 0.375000 0.500000
vt 0.630083 0.505083
vt 0.625000 0.000000
vt 0.625000 1.000000
vt 0.875000 0.750000
vt 0.625000 0.250000
vt 0.875000 0.500000
vt 0.625000 0.500000
vt 0.625000 0.750000
vt 0.869917 0.744917
vt 0.869917 0.505083
vt 0.630083 0.505083
vt 0.630083 0.744917
vt 0.625000 0.500000
vt 0.375000 0.500000
vt 0.625000 0.750000
vt 0.375000 0.750000
vt 0.875000 0.500000
vt 0.625000 0.250000
vt 0.125000 0.500000
vt 0.375000 0.250000
vt 0.875000 0.750000
vt 0.625000 1.000000
vt 0.625000 0.000000
vt 0.375000 0.000000
vt 0.375000 1.000000
vt 0.125000 0.750000
vt 0.625000 0.500000
vt 0.375000 0.500000
vt 0.625000 0.750000
vt 0.375000 0.750000
vt 0.875000 0.500000
vt 0.625000 0.250000
vt 0.375000 0.250000
vt 0.875000 0.750000
vt 0.625000 1.000000
vt 0.625000 0.000000
vt 0.375000 0.000000
vt 0.375000 1.000000
vt 0.625000 0.500000
vt 0.375000 0.500000
vt 0.625000 0.750000
vt 0.375000 0.750000
vt 0.625000 0.250000
vt 0.375000 0.250000
vt 0.625000 1.000000
vt 0.625000 0.000000
vt 0.375000 0.000000
vt 0.375000 1.000000
s 0
f 9/12/1 3/6/1 1/1/1
f 10/15/2 7/10/2 3/6/2
f 11/17/3 5/8/3 7/10/3
f 12/18/4 1/2/4 5/8/4
f 7/10/5 1/3/5 3/5/5
f 6/9/2 13/19/2 2/4/2
f 4/7/6 9/14/6 2/4/6
f 8/11/6 10/16/6 4/7/6
f 6/9/6 11/17/6 8/11/6
f 2/4/6 12/18/6 6/9/6
f 14/20/6 16/22/6 15/21/6
f 4/7/4 15/21/4 8/11/4
f 8/11/1 16/22/1 6/9/1
f 2/4/3 14/20/3 4/7/3
f 21/27/6 19/25/6 17/23/6
f 19/25/4 24/35/4 20/26/4
f 23/33/1 22/30/1 24/34/1
f 18/24/5 24/36/5 22/29/5
f 17/23/3 20/26/3 18/24/3
f 21/28/2 18/24/2 22/30/2
f 29/41/6 27/39/6 25/37/6
f 27/39/4 32/48/4 28/40/4
f 31/46/1 30/43/1 32/47/1
f 25/37/3 28/40/3 26/38/3
f 29/42/2 26/38/2 30/43/2
f 35/51/4 40/58/4 36/52/4
f 39/56/1 38/54/1 40/57/1
f 33/49/3 36/52/3 34/50/3
f 37/53/2 34/50/2 38/54/2
f 9/12/1 10/15/1 3/6/1
f 10/15/2 11/17/2 7/10/2
f 11/17/3 12/18/3 5/8/3
f 12/18/4 9/13/4 1/2/4
f 7/10/5 5/8/5 1/3/5
f 6/9/2 16/22/2 13/19/2
f 4/7/6 10/16/6 9/14/6
f 8/11/6 11/17/6 10/16/6
f 6/9/6 12/18/6 11/17/6
f 2/4/6 9/14/6 12/18/6
f 14/20/6 13/19/6 16/22/6
f 4/7/4 14/20/4 15/21/4
f 8/11/1 15/21/1 16/22/1
f 2/4/3 13/19/3 14/20/3
f 21/27/6 23/31/6 19/25/6
f 19/25/4 23/32/4 24/35/4
f 23/33/1 21/28/1 22/30/1
f 18/24/5 20/26/5 24/36/5
f 17/23/3 19/25/3 20/26/3
f 21/28/2 17/23/2 18/24/2
f 29/41/6 31/44/6 27/39/6
f 27/39/4 31/45/4 32/48/4
f 31/46/1 29/42/1 30/43/1
f 25/37/3 27/39/3 28/40/3
f 29/42/2 25/37/2 26/38/2
f 35/51/4 39/55/4 40/58/4
f 39/56/1 37/53/1 38/54/1
f 33/49/3 35/51/3 36/52/3
f 37/53/2 33/49/2 34/50/2
