# Blender 3.5.1
# www.blender.org
mtllib Scene.mtl
o Cube
v -27.177036 0.000000 27.472471
v -27.177036 1.800000 27.472471
v -27.177036 0.000000 27.972471
v -27.177036 1.800000 27.972471
v -27.677036 0.000000 27.472471
v -27.677036 1.800000 27.472471
v -27.677036 0.000000 27.972471
v -27.677036 1.800000 27.972471
vn 1.0000 -0.0000 -0.0000
vn -0.0000 -0.0000 1.0000
vn -1.0000 -0.0000 -0.0000
vn -0.0000 -0.0000 -1.0000
vn -0.0000 -1.0000 -0.0000
vn -0.0000 1.0000 -0.0000
vt 0.375000 0.000000
vt 0.375000 1.000000
vt 0.125000 0.750000
vt 0.625000 0.000000
vt 0.625000 1.000000
vt 0.875000 0.750000
vt 0.125000 0.500000
vt 0.375000 0.250000
vt 0.625000 0.250000
vt 0.875000 0.500000
vt 0.375000 0.750000
vt 0.625000 0.750000
vt 0.375000 0.500000
vt 0.625000 0.500000
s 0
f 2/4/1 3/8/1 1/1/1
f 4/9/2 7/13/2 3/8/2
f 8/14/3 5/11/3 7/13/3
f 6/12/4 1/2/4 5/11/4
f 7/13/5 1/3/5 3/7/5
f 4/10/6 6/12/6 8/14/6
f 2/4/1 4/9/1 3/8/1
f 4/9/2 8/14/2 7/13/2
f 8/14/3 6/12/3 5/11/3
f 6/12/4 2/5/4 1/2/4
f 7/13/5 5/11/5 1/3/5
f 4/10/6 2/6/6 6/12/6
o City
v 0.000000 0.000000 0.000000
v -40.000000 0.000000 0.000000
v 0.000000 0.000000 60.000000
v -40.000000 0.000000 60.000000
vn -0.0000 1.0000 -0.0000
vt 0.000000 1.000000
vt 1.000000 1.000000
vt 0.000000 0.000000
vt 1.000000 0.000000
s 0
usemtl City
f 10/16/7 11/17/7 9/15/7
f 10/16/7 12/18/7 11/17/7
o Shop
v -9.250000 0.000000 15.750000
v -9.250000 4.000000 15.750000
v -14.750000 0.000000 6.250000
v -14.750000 4.000000 6.250000
v -14.750000 0.000000 15.750000
v -14.750000 4.000000 15.750000
vn -0.0000 -0.0000 1.0000
vn -1.0000 -0.0000 -0.0000
vt 1.000000 0.000000
vt 1.000000 1.000000
vt 0.000000 0.000000
vt 0.000000 1.000000
vt 0.620000 0.000000
vt 0.620000 1.000000
s 0
usemtl Shop
f 14/20/8 17/23/8 13/19/8
f 18/24/9 15/21/9 17/23/9
f 14/20/8 18/24/8 17/23/8
f 18/24/9 16/22/9 15/21/9
o Slope
v 0.000000 0.000000 60.000000
v -40.000000 0.000000 60.000000
v 0.000000 2.003666 67.477783
v -40.000000 2.003666 67.477783
vn -0.0000 0.9659 -0.2588
vt 0.000000 0.000000
vt 1.000000 0.000000
vt 0.000000 1.000000
vt 1.000000 1.000000
s 0
f 20/26/10 21/27/10 19/25/10
f 20/26/10 22/28/10 21/27/10
o Runway
v -25.500000 2.000000 67.463997
v -100.000000 2.000000 67.463997
v -25.500000 2.000000 79.463997
v -100.000000 2.000000 79.463997
vn -0.0000 1.0000 -0.0000
vt 0.000000 0.000000
vt 1.000000 0.000000
vt 0.000000 1.000000
vt 1.000000 1.000000
s 0
f 24/30/11 25/31/11 23/29/11
f 24/30/11 26/32/11 25/31/11
o Office
v 0.000000 0.000000 31.000000
v 0.000000 30.000000 31.000000
v 0.000000 0.000000 56.000000
v 0.000000 30.000000 56.000000
v -13.000000 0.000000 31.000000
v -13.000000 30.000000 31.000000
v -13.000000 0.000000 56.000000
v -13.000000 30.000000 56.000000
vn -0.0000 -0.0000 1.0000
vn -1.0000 -0.0000 -0.0000
vn -0.0000 -0.0000 -1.0000
vt 0.375000 1.000000
vt 0.625000 1.000000
vt 0.375000 0.250000
vt 0.625000 0.250000
vt 0.375000 0.750000
vt 0.625000 0.750000
vt 0.375000 0.500000
vt 0.625000 0.500000
s 0
f 30/36/12 33/39/12 29/35/12
f 34/40/13 31/37/13 33/39/13
f 32/38/14 27/33/14 31/37/14
f 30/36/12 34/40/12 33/39/12
f 34/40/13 32/38/13 31/37/13
f 32/38/14 28/34/14 27/33/14
o Appartment
v -30.000000 0.000000 1.000000
v -30.000000 16.000000 1.000000
v -30.000000 0.000000 56.000000
v -30.000000 16.000000 56.000000
v -40.000000 0.000000 56.000000
v -40.000000 16.000000 56.000000
vn 1.0000 -0.0000 -0.0000
vn -0.0000 -0.0000 1.0000
vt 1.000000 0.000000
vt 1.000000 1.000000
vt 0.199418 0.000000
vt 0.199418 1.000000
vt 0.000000 0.000000
vt 0.000000 1.000000
s 0
usemtl Appartment
f 36/42/15 37/43/15 35/41/15
f 38/44/16 39/45/16 37/43/16
f 36/42/15 38/44/15 37/43/15
f 38/44/16 40/46/16 39/45/16
o Stair_brown
v -30.000000 0.000000 7.450000
v -30.000000 0.500000 7.450000
v -29.000000 0.000000 7.450000
v -30.000000 0.000000 8.450000
v -30.000000 0.500000 8.450000
v -29.000000 0.000000 8.450000
v -29.000000 0.250000 7.450000
v -29.000000 0.250000 8.450000
v -29.500000 0.500000 7.450000
v -29.500000 0.500000 8.450000
v -29.500000 0.250000 8.450000
v -29.500000 0.250000 7.450000
vn 1.0000 -0.0000 -0.0000
vn -0.0000 1.0000 -0.0000
vn -0.0000 -0.0000 -1.0000
vn -0.0000 -0.0000 1.0000
vt 0.125000 0.750000
vt 0.375000 1.000000
vt 0.625000 1.000000
vt 0.125000 0.500000
vt 0.000000 0.000000
vt 0.375000 0.750000
vt 0.625000 0.750000
vt 0.375000 0.500000
vt 0.375000 0.375000
vt 0.500000 0.500000
vt 0.625000 0.625000
vt 0.750000 0.500000
vt 0.625000 0.625000
vt 0.500000 0.625000
vt 0.562500 0.562500
s 0
f 48/56/17 43/50/17 47/55/17
f 51/60/18 47/55/18 52/61/18
f 45/53/18 49/57/18 42/49/18
f 49/58/17 51/60/17 52/61/17
f 43/50/19 41/47/19 47/55/19
f 47/55/19 41/47/19 52/61/19
f 41/48/19 42/49/19 49/57/19
f 49/57/19 52/61/19 41/48/19
f 50/59/20 44/51/20 51/60/20
f 51/60/20 44/51/20 48/56/20
f 46/54/20 48/56/20 44/52/20
f 45/53/20 44/52/20 50/59/20
f 48/56/17 46/54/17 43/50/17
f 51/60/18 48/56/18 47/55/18
f 45/53/18 50/59/18 49/57/18
f 49/58/17 50/59/17 51/60/17
o Stair_yellow
v -30.000000 0.000000 21.150000
v -30.000000 0.500000 21.150000
v -29.000000 0.000000 21.150000
v -30.000000 0.000000 22.150000
v -30.000000 0.500000 22.150000
v -29.000000 0.000000 22.150000
v -29.000000 0.250000 21.150000
v -29.000000 0.250000 22.150000
v -29.500000 0.500000 21.150000
v -29.500000 0.500000 22.150000
v -29.500000 0.250000 22.150000
v -29.500000 0.250000 21.150000
vn 1.0000 -0.0000 -0.0000
vn -0.0000 1.0000 -0.0000
vn -0.0000 -0.0000 -1.0000
vn -0.0000 -0.0000 1.0000
vt 0.125000 0.750000
vt 0.375000 1.000000
vt 0.625000 1.000000
vt 0.125000 0.500000
vt 0.000000 0.000000
vt 0.375000 0.750000
vt 0.625000 0.750000
vt 0.375000 0.500000
vt 0.375000 0.375000
vt 0.500000 0.500000
vt 0.625000 0.625000
vt 0.750000 0.500000
vt 0.625000 0.625000
vt 0.500000 0.625000
vt 0.562500 0.562500
s 0
f 60/71/21 55/65/21 59/70/21
f 63/75/22 59/70/22 64/76/22
f 57/68/22 61/72/22 54/64/22
f 61/73/21 63/75/21 64/76/21
f 55/65/23 53/62/23 59/70/23
f 59/70/23 53/62/23 64/76/23
f 53/63/23 54/64/23 61/72/23
f 61/72/23 64/76/23 53/63/23
f 62/74/24 56/66/24 63/75/24
f 63/75/24 56/66/24 60/71/24
f 58/69/24 60/71/24 56/67/24
f 57/68/24 56/67/24 62/74/24
f 60/71/21 58/69/21 55/65/21
f 63/75/22 60/71/22 59/70/22
f 57/68/22 62/74/22 61/72/22
f 61/73/21 62/74/21 63/75/21
o Stair_white.001
v -30.000000 0.000000 34.849998
v -30.000000 0.500000 34.849998
v -29.000000 0.000000 34.849998
v -30.000000 0.000000 35.849998
v -30.000000 0.500000 35.849998
v -29.000000 0.000000 35.849998
v -29.000000 0.250000 34.849998
v -29.000000 0.250000 35.849998
v -29.500000 0.500000 34.849998
v -29.500000 0.500000 35.849998
v -29.500000 0.250000 35.849998
v -29.500000 0.250000 34.849998
vn 1.0000 -0.0000 -0.0000
vn -0.0000 1.0000 -0.0000
vn -0.0000 -0.0000 -1.0000
vn -0.0000 -0.0000 1.0000
vt 0.125000 0.750000
vt 0.375000 1.000000
vt 0.625000 1.000000
vt 0.125000 0.500000
vt 0.000000 0.000000
vt 0.375000 0.750000
vt 0.625000 0.750000
vt 0.375000 0.500000
vt 0.375000 0.375000
vt 0.500000 0.500000
vt 0.625000 0.625000
vt 0.750000 0.500000
vt 0.625000 0.625000
vt 0.500000 0.625000
vt 0.562500 0.562500
s 0
f 72/86/25 67/80/25 71/85/25
f 75/90/26 71/85/26 76/91/26
f 69/83/26 73/87/26 66/79/26
f 73/88/25 75/90/25 76/91/25
f 67/80/27 65/77/27 71/85/27
f 71/85/27 65/77/27 76/91/27
f 65/78/27 66/79/27 73/87/27
f 73/87/27 76/91/27 65/78/27
f 74/89/28 68/81/28 75/90/28
f 75/90/28 68/81/28 72/86/28
f 70/84/28 72/86/28 68/82/28
f 69/83/28 68/82/28 74/89/28
f 72/86/25 70/84/25 67/80/25
f 75/90/26 72/86/26 71/85/26
f 69/83/26 74/89/26 73/87/26
f 73/88/25 74/89/25 75/90/25
o Stair_white
v -30.000000 0.000000 48.549999
v -30.000000 0.500000 48.549999
v -29.000000 0.000000 48.549999
v -30.000000 0.000000 49.549999
v -30.000000 0.500000 49.549999
v -29.000000 0.000000 49.549999
v -29.000000 0.250000 48.549999
v -29.000000 0.250000 49.549999
v -29.500000 0.500000 48.549999
v -29.500000 0.500000 49.549999
v -29.500000 0.250000 49.549999
v -29.500000 0.250000 48.549999
vn 1.0000 -0.0000 -0.0000
vn -0.0000 1.0000 -0.0000
vn -0.0000 -0.0000 -1.0000
vn -0.0000 -0.0000 1.0000
vt 0.125000 0.750000
vt 0.375000 1.000000
vt 0.625000 1.000000
vt 0.125000 0.500000
vt 0.000000 0.000000
vt 0.375000 0.750000
vt 0.625000 0.750000
vt 0.375000 0.500000
vt 0.375000 0.375000
vt 0.500000 0.500000
vt 0.625000 0.625000
vt 0.750000 0.500000
vt 0.625000 0.625000
vt 0.500000 0.625000
vt 0.562500 0.562500
s 0
f 84/101/29 79/95/29 83/100/29
f 87/105/30 83/100/30 88/106/30
f 81/98/30 85/102/30 78/94/30
f 85/103/29 87/105/29 88/106/29
f 79/95/31 77/92/31 83/100/31
f 83/100/31 77/92/31 88/106/31
f 77/93/31 78/94/31 85/102/31
f 85/102/31 88/106/31 77/93/31
f 86/104/32 80/96/32 87/105/32
f 87/105/32 80/96/32 84/101/32
f 82/99/32 84/101/32 80/97/32
f 81/98/32 80/97/32 86/104/32
f 84/101/29 82/99/29 79/95/29
f 87/105/30 84/101/30 83/100/30
f 81/98/30 86/104/30 85/102/30
f 85/103/29 86/104/29 87/105/29
o Turning
v -19.500000 2.000000 67.463997
v -25.500000 2.000000 67.463997
v -19.500000 2.000000 79.463997
v -25.500000 2.000000 79.463997
vn -0.0000 1.0000 -0.0000
vt 0.000000 0.000000
vt 1.000000 0.000000
vt 0.000000 1.000000
vt 1.000000 1.000000
s 0
f 90/108/33 91/109/33 89/107/33
f 90/108/33 92/110/33 91/109/33
o Appartment_shadow_wall
v -30.000000 0.000000 55.349998
v -40.000000 0.000000 55.349998
v -30.000000 16.000000 55.349998
v -40.000000 16.000000 55.349998
vn -0.0000 -0.0000 -1.0000
vt 0.000000 0.000000
vt 1.000000 0.000000
vt 0.000000 1.000000
vt 1.000000 1.000000
s 0
f 94/112/34 95/113/34 93/111/34
f 94/112/34 96/114/34 95/113/34
o Sun
v -44.999992 -17.500008 -60.000000
v 5.000008 -17.499992 -60.000000
v -45.000008 32.499992 -60.000000
v 4.999992 32.500008 -60.000000
vn -0.0000 -0.0000 -1.0000
vt 0.000000 0.000000
vt 1.000000 0.000000
vt 0.000000 1.000000
vt 1.000000 1.000000
s 0
usemtl Sun
f 99/117/35 98/116/35 97/115/35
f 99/117/35 100/118/35 98/116/35
o Shop_shadow_wall
v -9.250000 0.000000 14.000000
v -14.750000 0.000000 14.000000
v -9.250000 4.000000 14.000000
v -14.750000 4.000000 14.000000
vn -0.0000 -0.0000 -1.0000
vt 0.000000 0.000000
vt 1.000000 0.000000
vt 0.000000 1.000000
vt 1.000000 1.000000
s 0
f 102/120/36 103/121/36 101/119/36
f 102/120/36 104/122/36 103/121/36
o Cube.002
v 1.000000 -1.000000 -1.000000
v 1.000000 1.000000 -1.000000
v 1.000000 -1.000000 1.000000
v 1.000000 1.000000 1.000000
v -1.000000 -1.000000 -1.000000
v -1.000000 1.000000 -1.000000
v -1.000000 -1.000000 1.000000
v -1.000000 1.000000 1.000000
vn 1.0000 -0.0000 -0.0000
vn -0.0000 -0.0000 1.0000
vn -1.0000 -0.0000 -0.0000
vn -0.0000 -0.0000 -1.0000
vn -0.0000 -1.0000 -0.0000
vn -0.0000 1.0000 -0.0000
vt 0.375000 0.000000
vt 0.375000 1.000000
vt 0.125000 0.750000
vt 0.625000 0.000000
vt 0.625000 1.000000
vt 0.875000 0.750000
vt 0.125000 0.500000
vt 0.375000 0.250000
vt 0.625000 0.250000
vt 0.875000 0.500000
vt 0.375000 0.750000
vt 0.625000 0.750000
vt 0.375000 0.500000
vt 0.625000 0.500000
s 0
f 106/126/37 107/130/37 105/123/37
f 108/131/38 111/135/38 107/130/38
f 112/136/39 109/133/39 111/135/39
f 110/134/40 105/124/40 109/133/40
f 111/135/41 105/125/41 107/129/41
f 108/132/42 110/134/42 112/136/42
f 106/126/37 108/131/37 107/130/37
f 108/131/38 112/136/38 111/135/38
f 112/136/39 110/134/39 109/133/39
f 110/134/40 106/127/40 105/124/40
f 111/135/41 109/133/41 105/125/41
f 108/132/42 106/128/42 110/134/42
o Shop_top
v -8.750000 3.000000 16.375000
v -9.244685 4.000000 15.738976
v -15.250000 3.000000 16.375000
v -14.755315 4.000000 15.738976
v -15.250000 3.000000 5.625000
v -14.741399 4.000000 6.269231
vn -0.0000 0.5367 0.8438
vn -0.8963 0.4434 -0.0000
vn -0.8910 0.4540 -0.0013
vt 1.000000 0.000000
vt 1.000000 1.000000
vt 0.624277 0.000000
vt 0.624277 1.000000
vt 0.000000 0.000000
vt 0.000000 1.000000
s 0
usemtl Shop_top
f 114/138/43 115/139/43 113/137/43
f 116/140/44 117/141/44 115/139/44
f 114/138/43 116/140/43 115/139/43
f 116/140/45 118/142/45 117/141/45
o ICE_Board
v -13.470000 4.500000 13.260000
v -13.350000 5.300000 12.300000
v -13.470000 4.500000 13.740000
v -13.350000 5.300000 14.700000
v -13.530000 4.500000 13.260000
v -13.650000 5.300000 12.300000
v -13.530000 4.500000 13.740000
v -13.650000 5.300000 14.700000
v -13.350000 4.500000 14.700000
v -13.350000 4.500000 12.300000
v -13.650000 4.500000 14.700000
v -13.650000 4.500000 12.300000
v -13.470000 3.999999 13.740000
v -13.470000 3.999999 13.260000
v -13.530000 3.999999 13.740000
v -13.530000 3.999999 13.260000
vn -0.0000 -0.0000 1.0000
vn -1.0000 -0.0000 -0.0000
vn -0.0000 -0.0000 -1.0000
vn -0.0000 -1.0000 -0.0000
vn 1.0000 -0.0000 -0.0000
vt 0.155306 0.719694
vt 0.625000 1.000000
vt 0.155306 0.530306
vt 0.625000 0.250000
vt 0.344694 0.719694
vt 0.625000 0.750000
vt 0.344694 0.530306
vt 0.625000 0.500000
vt 0.375000 0.250000
vt 0.125000 0.500000
vt 0.375000 1.000000
vt 0.125000 0.750000
vt 0.375000 0.500000
vt 0.375000 0.750000
vt 0.155306 0.530306
vt 0.155306 0.719694
vt 0.344694 0.530306
vt 0.344694 0.719694
s 0
f 122/146/46 129/155/46 127/151/46
f 126/150/47 130/156/47 129/155/47
f 124/148/48 128/153/48 130/156/48
f 123/147/47 133/159/47 125/149/47
f 119/143/49 127/152/49 121/145/49
f 121/145/49 129/155/49 125/149/49
f 125/149/49 130/156/49 123/147/49
f 123/147/49 128/154/49 119/143/49
f 121/145/50 132/158/50 119/143/50
f 119/143/48 134/160/48 123/147/48
f 125/149/46 131/157/46 121/145/46
f 122/146/46 126/150/46 129/155/46
f 126/150/47 124/148/47 130/156/47
f 124/148/48 120/144/48 128/153/48
f 123/147/47 134/160/47 133/159/47
f 119/143/49 128/154/49 127/152/49
f 121/145/49 127/152/49 129/155/49
f 125/149/49 129/155/49 130/156/49
f 123/147/49 130/156/49 128/154/49
f 121/145/50 131/157/50 132/158/50
f 119/143/48 132/158/48 134/160/48
f 125/149/46 133/159/46 131/157/46
o rlp2
v -25.950001 0.000000 30.950001
v -25.950001 6.000000 30.950001
v -25.950001 0.000000 31.049999
v -25.950001 6.000000 31.049999
v -26.049999 0.000000 30.950001
v -26.049999 6.000000 30.950001
v -26.049999 0.000000 31.049999
v -26.049999 6.000000 31.049999
v -24.021133 6.210523 30.950001
v -24.047016 6.307116 30.950001
v -24.021133 6.210523 31.049999
v -24.047016 6.307116 31.049999
v -25.952984 5.692885 30.950001
v -25.978867 5.789477 30.950001
v -25.952984 5.692885 31.049999
v -25.978867 5.789477 31.049999
vn 1.0000 -0.0000 -0.0000
vn -0.0000 -0.0000 1.0000
vn -1.0000 -0.0000 -0.0000
vn -0.0000 -0.0000 -1.0000
vn 0.9659 0.2588 -0.0000
vn 0.2588 -0.9659 -0.0000
vt 0.375000 0.000000
vt 0.375000 1.000000
vt 0.625000 0.000000
vt 0.625000 1.000000
vt 0.375000 0.250000
vt 0.625000 0.250000
vt 0.375000 0.750000
vt 0.625000 0.750000
vt 0.375000 0.500000
vt 0.625000 0.500000
vt 0.375000 0.000000
vt 0.375000 1.000000
vt 0.125000 0.750000
vt 0.625000 0.000000
vt 0.625000 1.000000
vt 0.125000 0.500000
vt 0.375000 0.250000
vt 0.625000 0.250000
vt 0.375000 0.750000
vt 0.625000 0.750000
vt 0.375000 0.500000
vt 0.625000 0.500000
s 0
f 136/163/51 137/165/51 135/161/51
f 138/166/52 141/169/52 137/165/52
f 142/170/53 139/167/53 141/169/53
f 140/168/54 135/162/54 139/167/54
f 144/174/55 145/177/55 143/171/55
f 146/178/52 149/181/52 145/177/52
f 147/179/54 144/175/54 143/172/54
f 149/181/56 143/173/56 145/176/56
f 136/163/51 138/166/51 137/165/51
f 138/166/52 142/170/52 141/169/52
f 142/170/53 140/168/53 139/167/53
f 140/168/54 136/164/54 135/162/54
f 144/174/55 146/178/55 145/177/55
f 146/178/52 150/182/52 149/181/52
f 147/179/54 148/180/54 144/175/54
f 149/181/56 147/179/56 143/173/56
o rl_2
v -24.021795 6.130000 31.142658
v -24.189501 6.130000 31.088167
v -24.189501 6.130000 30.911833
v -24.021795 6.130000 30.857342
v -23.918148 6.130000 31.000000
v -24.068148 6.230000 31.000000
vn -0.1965 0.7717 0.6048
vn -0.6359 0.7717 -0.0000
vn -0.1965 0.7717 -0.6048
vn 0.5145 0.7717 -0.3738
vn 0.5145 0.7717 0.3738
vt 0.250000 0.490000
vt 0.478254 0.324164
vt 0.391068 0.055836
vt 0.108932 0.055836
vt 0.021746 0.324164
vt 0.250000 0.250000
s 0
f 151/183/57 156/188/57 152/184/57
f 152/184/58 156/188/58 153/185/58
f 153/185/59 156/188/59 154/186/59
f 154/186/60 156/188/60 155/187/60
f 155/187/61 156/188/61 151/183/61
o rlp3
v -25.950001 0.000000 45.950001
v -25.950001 6.000000 45.950001
v -25.950001 0.000000 46.049999
v -25.950001 6.000000 46.049999
v -26.049999 0.000000 45.950001
v -26.049999 6.000000 45.950001
v -26.049999 0.000000 46.049999
v -26.049999 6.000000 46.049999
v -24.021133 6.210523 45.950001
v -24.047016 6.307116 45.950001
v -24.021133 6.210523 46.049999
v -24.047016 6.307116 46.049999
v -25.952984 5.692885 45.950001
v -25.978867 5.789477 45.950001
v -25.952984 5.692885 46.049999
v -25.978867 5.789477 46.049999
vn 1.0000 -0.0000 -0.0000
vn -0.0000 -0.0000 1.0000
vn -1.0000 -0.0000 -0.0000
vn -0.0000 -0.0000 -1.0000
vn 0.9659 0.2588 -0.0000
vn 0.2588 -0.9659 -0.0000
vt 0.375000 0.000000
vt 0.375000 1.000000
vt 0.625000 0.000000
vt 0.625000 1.000000
vt 0.375000 0.250000
vt 0.625000 0.250000
vt 0.375000 0.750000
vt 0.625000 0.750000
vt 0.375000 0.500000
vt 0.625000 0.500000
vt 0.375000 0.000000
vt 0.375000 1.000000
vt 0.125000 0.750000
vt 0.625000 0.000000
vt 0.625000 1.000000
vt 0.125000 0.500000
vt 0.375000 0.250000
vt 0.625000 0.250000
vt 0.375000 0.750000
vt 0.625000 0.750000
vt 0.375000 0.500000
vt 0.625000 0.500000
s 0
f 158/191/62 159/193/62 157/189/62
f 160/194/63 163/197/63 159/193/63
f 164/198/64 161/195/64 163/197/64
f 162/196/65 157/190/65 161/195/65
f 166/202/66 167/205/66 165/199/66
f 168/206/63 171/209/63 167/205/63
f 169/207/65 166/203/65 165/200/65
f 171/209/67 165/201/67 167/204/67
f 158/191/62 160/194/62 159/193/62
f 160/194/63 164/198/63 163/197/63
f 164/198/64 162/196/64 161/195/64
f 162/196/65 158/192/65 157/190/65
f 166/202/66 168/206/66 167/205/66
f 168/206/63 172/210/63 171/209/63
f 169/207/65 170/208/65 166/203/65
f 171/209/67 169/207/67 165/201/67
o rl3
v -24.021795 6.130000 46.142658
v -24.189501 6.130000 46.088169
v -24.189501 6.130000 45.911831
v -24.021795 6.130000 45.857342
v -23.918148 6.130000 46.000000
v -24.068148 6.230000 46.000000
vn -0.1965 0.7717 0.6048
vn -0.6359 0.7717 -0.0000
vn -0.1965 0.7717 -0.6048
vn 0.5145 0.7717 -0.3738
vn 0.5145 0.7717 0.3738
vt 0.250000 0.490000
vt 0.478254 0.324164
vt 0.391068 0.055836
vt 0.108932 0.055836
vt 0.021746 0.324164
vt 0.250000 0.250000
s 0
f 173/211/68 178/216/68 174/212/68
f 174/212/69 178/216/69 175/213/69
f 175/213/70 178/216/70 176/214/70
f 176/214/71 178/216/71 177/215/71
f 177/215/72 178/216/72 173/211/72
o Road_light
v -23.100000 6.200000 16.200001
v -23.290213 6.200000 16.061804
v -23.217558 6.200000 15.838197
v -22.982443 6.200000 15.838197
v -22.909788 6.200000 16.061804
v -23.100000 6.300000 16.000000
vn -0.3090 0.8507 0.4253
vn -0.5000 0.8507 -0.1625
vn -0.0000 0.8507 -0.5257
vn -0.0000 1.0000 -0.0000
vn 0.5000 0.8507 -0.1625
vn 0.3090 0.8507 0.4253
vt 0.250000 0.490000
vt 0.750000 0.490000
vt 0.478254 0.324164
vt 0.978254 0.324164
vt 0.391068 0.055836
vt 0.891068 0.055836
vt 0.108932 0.055836
vt 0.608932 0.055836
vt 0.021746 0.324164
vt 0.521746 0.324164
vt 0.250000 0.250000
s 0
f 179/217/73 184/227/73 180/219/73
f 180/219/74 184/227/74 181/221/74
f 181/221/75 184/227/75 182/223/75
f 183/226/76 181/222/76 180/220/76
f 182/223/77 184/227/77 183/225/77
f 183/225/78 184/227/78 179/217/78
f 180/220/76 179/218/76 183/226/76
f 183/226/76 182/224/76 181/222/76
o Road_light_pole
v -25.900000 0.000000 15.900000
v -25.900000 6.000000 15.900000
v -25.900000 0.000000 16.100000
v -25.900000 6.000000 16.100000
v -26.100000 0.000000 15.900000
v -26.100000 6.000000 15.900000
v -26.100000 0.000000 16.100000
v -26.100000 6.000000 16.100000
v -23.025229 6.291636 15.900000
v -23.076994 6.484821 15.900000
v -23.025229 6.291636 16.100000
v -23.076994 6.484821 16.100000
v -25.923006 5.515179 15.900000
v -25.974771 5.708364 15.900000
v -25.923006 5.515179 16.100000
v -25.974771 5.708364 16.100000
vn 1.0000 -0.0000 -0.0000
vn -0.0000 -0.0000 1.0000
vn -1.0000 -0.0000 -0.0000
vn -0.0000 -0.0000 -1.0000
vn -0.0000 1.0000 -0.0000
vn 0.9659 0.2588 -0.0000
vn 0.2588 -0.9659 -0.0000
vn -0.2588 0.9659 -0.0000
vt 0.375000 0.000000
vt 0.375000 1.000000
vt 0.625000 0.000000
vt 0.625000 1.000000
vt 0.875000 0.750000
vt 0.375000 0.250000
vt 0.625000 0.250000
vt 0.875000 0.500000
vt 0.375000 0.750000
vt 0.625000 0.750000
vt 0.375000 0.500000
vt 0.625000 0.500000
vt 0.375000 0.000000
vt 0.375000 1.000000
vt 0.125000 0.750000
vt 0.625000 0.000000
vt 0.625000 1.000000
vt 0.875000 0.750000
vt 0.125000 0.500000
vt 0.375000 0.250000
vt 0.625000 0.250000
vt 0.875000 0.500000
vt 0.375000 0.750000
vt 0.625000 0.750000
vt 0.375000 0.500000
vt 0.625000 0.500000
s 0
f 186/230/79 187/233/79 185/228/79
f 188/234/80 191/238/80 187/233/80
f 192/239/81 189/236/81 191/238/81
f 190/237/82 185/229/82 189/236/82
f 188/235/83 190/237/83 192/239/83
f 194/243/84 195/247/84 193/240/84
f 196/248/80 199/252/80 195/247/80
f 197/250/82 194/244/82 193/241/82
f 199/252/85 193/242/85 195/246/85
f 196/249/86 198/251/86 200/253/86
f 186/230/79 188/234/79 187/233/79
f 188/234/80 192/239/80 191/238/80
f 192/239/81 190/237/81 189/236/81
f 190/237/82 186/231/82 185/229/82
f 188/235/83 186/232/83 190/237/83
f 194/243/84 196/248/84 195/247/84
f 196/248/80 200/253/80 199/252/80
f 197/250/82 198/251/82 194/244/82
f 199/252/85 197/250/85 193/242/85
f 196/249/86 194/245/86 198/251/86
