# Blender 3.5.1
# www.blender.org
mtllib playground.mtl
o Cube
v -1.910047 0.000000 0.811999
v -1.910047 2.000000 0.811999
v -1.910047 0.000000 0.821999
v -1.910047 2.000000 0.821999
v -4.979914 0.000000 0.811999
v -4.979914 2.000000 0.811999
v -4.979914 0.000000 0.821999
v -4.979914 2.000000 0.821999
vn -0.0000 -0.0000 1.0000
vn -0.0000 -0.0000 -1.0000
vt 0.375000 1.000000
vt 0.625000 1.000000
vt 0.375000 0.250000
vt 0.625000 0.250000
vt 0.375000 0.750000
vt 0.625000 0.750000
vt 0.375000 0.500000
vt 0.625000 0.500000
s 0
f 4/4/1 7/7/1 3/3/1
f 6/6/2 1/1/2 5/5/2
f 4/4/1 8/8/1 7/7/1
f 6/6/2 2/2/2 1/1/2
o Cube.001
v -1.914670 -0.000000 -0.839556
v -1.914670 2.000000 -0.839556
v -1.914670 -0.000000 -0.829556
v -1.914670 2.000000 -0.829556
v -4.984538 -0.000000 -0.839556
v -4.984538 2.000000 -0.839556
v -4.984538 -0.000000 -0.829556
v -4.984538 2.000000 -0.829556
vn -0.0000 -0.0000 1.0000
vn -0.0000 -0.0000 -1.0000
vt 0.375000 1.000000
vt 0.625000 1.000000
vt 0.375000 0.250000
vt 0.625000 0.250000
vt 0.375000 0.750000
vt 0.625000 0.750000
vt 0.375000 0.500000
vt 0.625000 0.500000
s 0
f 12/12/3 15/15/3 11/11/3
f 14/14/4 9/9/4 13/13/4
f 12/12/3 16/16/3 15/15/3
f 14/14/4 10/10/4 9/9/4
o Cube.002
v 1.178942 0.000000 3.851569
v 1.178942 2.000000 3.851569
v 1.178942 0.000000 3.861569
v 1.178942 2.000000 3.861569
v -1.890925 0.000000 3.851569
v -1.890925 2.000000 3.851569
v -1.890925 0.000000 3.861569
v -1.890925 2.000000 3.861569
vn -0.0000 -0.0000 1.0000
vn -0.0000 -0.0000 -1.0000
vt 0.375000 1.000000
vt 0.625000 1.000000
vt 0.375000 0.250000
vt 0.625000 0.250000
vt 0.375000 0.750000
vt 0.625000 0.750000
vt 0.375000 0.500000
vt 0.625000 0.500000
s 0
f 20/20/5 23/23/5 19/19/5
f 22/22/6 17/17/6 21/21/6
f 20/20/5 24/24/5 23/23/5
f 22/22/6 18/18/6 17/17/6
o Cube.003
v -1.897329 0.000000 0.792088
v -1.897329 2.000000 0.792088
v -1.887329 0.000000 0.792088
v -1.887329 2.000000 0.792088
v -1.897329 0.000000 3.861955
v -1.897329 2.000000 3.861955
v -1.887329 0.000000 3.861955
v -1.887329 2.000000 3.861955
vn 1.0000 -0.0000 -0.0000
vn -1.0000 -0.0000 -0.0000
vt 0.375000 1.000000
vt 0.625000 1.000000
vt 0.375000 0.250000
vt 0.625000 0.250000
vt 0.375000 0.750000
vt 0.625000 0.750000
vt 0.375000 0.500000
vt 0.625000 0.500000
s 0
f 28/28/7 31/31/7 27/27/7
f 30/30/8 25/25/8 29/29/8
f 28/28/7 32/32/7 31/31/7
f 30/30/8 26/26/8 25/25/8
o Cube.004
v 0.183269 -0.000002 1.306474
v 0.183269 1.999998 1.306474
v 0.176198 -0.000002 1.313545
v 0.176198 1.999998 1.313545
v -1.987455 -0.000002 -0.864250
v -1.987455 1.999998 -0.864250
v -1.994526 -0.000002 -0.857179
v -1.994526 1.999998 -0.857179
vn -0.7071 -0.0000 0.7071
vn 0.7071 -0.0000 -0.7071
vt 0.375000 1.000000
vt 0.625000 1.000000
vt 0.375000 0.250000
vt 0.625000 0.250000
vt 0.375000 0.750000
vt 0.625000 0.750000
vt 0.375000 0.500000
vt 0.625000 0.500000
s 0
f 36/36/9 39/39/9 35/35/9
f 38/38/10 33/33/10 37/37/10
f 36/36/9 40/40/9 39/39/9
f 38/38/10 34/34/10 33/33/10
o Cube.005
v 2.452556 0.000000 1.091287
v 2.452556 2.000000 1.091287
v 2.461619 0.000000 1.095513
v 2.461619 2.000000 1.095513
v 1.155174 0.000000 3.873532
v 1.155174 2.000000 3.873532
v 1.164237 0.000000 3.877758
v 1.164237 2.000000 3.877758
vn 0.9063 -0.0000 0.4226
vn -0.9063 -0.0000 -0.4226
vt 0.375000 1.000000
vt 0.625000 1.000000
vt 0.375000 0.250000
vt 0.625000 0.250000
vt 0.375000 0.750000
vt 0.625000 0.750000
vt 0.375000 0.500000
vt 0.625000 0.500000
s 0
f 44/44/11 47/47/11 43/43/11
f 46/46/12 41/41/12 45/45/12
f 44/44/11 48/48/11 47/47/11
f 46/46/12 42/42/12 41/41/12
o Plane
v 5.000000 -0.000000 -5.000000
v -5.000000 -0.000000 -5.000000
v 5.000000 0.000000 5.000000
v -5.000000 0.000000 5.000000
vn -0.0000 1.0000 -0.0000
vt 0.000000 0.000000
vt 1.000000 0.000000
vt 0.000000 1.000000
vt 1.000000 1.000000
s 0
f 50/50/13 51/51/13 49/49/13
f 50/50/13 52/52/13 51/51/13
