# Blender 3.6.4
# www.blender.org
o Sphere
v -0.353553 0.866025 0.353553
v -0.612372 0.500000 0.612372
v -0.707107 0.000000 0.707107
v -0.612372 -0.500000 0.612372
v -0.353553 -0.866025 0.353553
v -0.500000 0.866025 0.000000
v -0.866025 0.500000 0.000000
v -1.000000 0.000000 0.000000
v -0.866025 -0.500000 0.000000
v -0.500000 -0.866025 0.000000
v -0.353553 0.866025 -0.353553
v -0.612372 0.500000 -0.612372
v -0.707107 0.000000 -0.707107
v -0.612372 -0.500000 -0.612372
v -0.353553 -0.866025 -0.353553
v 0.000000 0.866025 -0.500000
v 0.000000 0.500000 -0.866025
v 0.000000 0.000000 -1.000000
v 0.000000 -0.500000 -0.866025
v 0.000000 -0.866025 -0.500000
v 0.000000 1.000000 0.000000
v 0.353553 0.866025 -0.353553
v 0.612372 0.500000 -0.612372
v 0.707107 0.000000 -0.707107
v 0.612372 -0.500000 -0.612372
v 0.353553 -0.866025 -0.353553
v 0.000000 -1.000000 0.000000
v 0.500000 0.866025 0.000000
v 0.866025 0.500000 0.000000
v 1.000000 0.000000 0.000000
v 0.866025 -0.500000 0.000000
v 0.500000 -0.866025 0.000000
v 0.353553 0.866025 0.353553
v 0.612372 0.500000 0.612372
v 0.707107 0.000000 0.707107
v 0.612372 -0.500000 0.612372
v 0.353553 -0.866025 0.353553
v 0.000000 0.866025 0.500000
v 0.000000 0.500000 0.866025
v 0.000000 0.000000 1.000000
v 0.000000 -0.500000 0.866025
v 0.000000 -0.866025 0.500000
vn -0.2811 -0.6786 0.6786
vn -0.3715 0.2403 0.8968
vn -0.1066 0.9604 0.2573
vn -0.1066 -0.9604 0.2573
vn -0.3715 -0.2403 0.8968
vn -0.2811 0.6786 0.6786
vn -0.2573 0.9604 0.1066
vn -0.2573 -0.9604 0.1066
vn -0.8968 -0.2403 0.3715
vn -0.6786 0.6786 0.2811
vn -0.6786 -0.6786 0.2811
vn -0.8968 0.2403 0.3715
vn -0.2573 -0.9604 -0.1066
vn -0.8968 -0.2403 -0.3715
vn -0.6786 0.6786 -0.2811
vn -0.6786 -0.6786 -0.2811
vn -0.8968 0.2403 -0.3715
vn -0.2573 0.9604 -0.1066
vn -0.1066 -0.9604 -0.2573
vn -0.3715 -0.2403 -0.8968
vn -0.2811 0.6786 -0.6786
vn -0.2811 -0.6786 -0.6786
vn -0.3715 0.2403 -0.8968
vn -0.1066 0.9604 -0.2573
vn 0.1066 -0.9604 -0.2573
vn 0.3715 -0.2403 -0.8968
vn 0.2811 0.6786 -0.6786
vn 0.2811 -0.6786 -0.6786
vn 0.3715 0.2403 -0.8968
vn 0.1066 0.9604 -0.2573
vn 0.8968 -0.2403 -0.3715
vn 0.6786 0.6786 -0.2811
vn 0.6786 -0.6786 -0.2811
vn 0.8968 0.2403 -0.3715
vn 0.2573 0.9604 -0.1066
vn 0.2573 -0.9604 -0.1066
vn 0.6786 0.6786 0.2811
vn 0.6786 -0.6786 0.2811
vn 0.8968 0.2403 0.3715
vn 0.2573 0.9604 0.1066
vn 0.2573 -0.9604 0.1066
vn 0.8968 -0.2403 0.3715
vn 0.2811 -0.6786 0.6786
vn 0.3715 0.2403 0.8968
vn 0.1066 0.9604 0.2573
vn 0.1066 -0.9604 0.2573
vn 0.3715 -0.2403 0.8968
vn 0.2811 0.6786 0.6786
s 0
f 41//1 5//1 42//1
f 39//2 3//2 40//2
f 38//3 21//3 1//3
f 27//4 42//4 5//4
f 40//5 4//5 41//5
f 38//6 2//6 39//6
f 1//7 21//7 6//7
f 27//8 5//8 10//8
f 3//9 9//9 4//9
f 1//10 7//10 2//10
f 4//11 10//11 5//11
f 2//12 8//12 3//12
f 27//13 10//13 15//13
f 9//14 13//14 14//14
f 6//15 12//15 7//15
f 9//16 15//16 10//16
f 8//17 12//17 13//17
f 6//18 21//18 11//18
f 27//19 15//19 20//19
f 13//20 19//20 14//20
f 11//21 17//21 12//21
f 14//22 20//22 15//22
f 12//23 18//23 13//23
f 11//24 21//24 16//24
f 27//25 20//25 26//25
f 18//26 25//26 19//26
f 16//27 23//27 17//27
f 19//28 26//28 20//28
f 17//29 24//29 18//29
f 16//30 21//30 22//30
f 24//31 31//31 25//31
f 22//32 29//32 23//32
f 25//33 32//33 26//33
f 23//34 30//34 24//34
f 22//35 21//35 28//35
f 27//36 26//36 32//36
f 28//37 34//37 29//37
f 31//38 37//38 32//38
f 29//39 35//39 30//39
f 28//40 21//40 33//40
f 27//41 32//41 37//41
f 30//42 36//42 31//42
f 36//43 42//43 37//43
f 34//44 40//44 35//44
f 33//45 21//45 38//45
f 27//46 37//46 42//46
f 35//47 41//47 36//47
f 33//48 39//48 34//48
f 41//1 4//1 5//1
f 39//2 2//2 3//2
f 40//5 3//5 4//5
f 38//6 1//6 2//6
f 3//9 8//9 9//9
f 1//10 6//10 7//10
f 4//11 9//11 10//11
f 2//12 7//12 8//12
f 9//14 8//14 13//14
f 6//15 11//15 12//15
f 9//16 14//16 15//16
f 8//17 7//17 12//17
f 13//20 18//20 19//20
f 11//21 16//21 17//21
f 14//22 19//22 20//22
f 12//23 17//23 18//23
f 18//26 24//26 25//26
f 16//27 22//27 23//27
f 19//28 25//28 26//28
f 17//29 23//29 24//29
f 24//31 30//31 31//31
f 22//32 28//32 29//32
f 25//33 31//33 32//33
f 23//34 29//34 30//34
f 28//37 33//37 34//37
f 31//38 36//38 37//38
f 29//39 34//39 35//39
f 30//42 35//42 36//42
f 36//43 41//43 42//43
f 34//44 39//44 40//44
f 35//47 40//47 41//47
f 33//48 38//48 39//48
