# Blender v3.5.1 OBJ File: ''
# www.blender.org
mtllib tree.mtl
o Low_poly_tree_Cylinder
v -0.000000 -0.013033 -0.269858
v -0.000000 1.056939 -0.269858
v 0.190819 -0.013033 -0.190819
v 0.190819 1.056939 -0.190819
v 0.269858 -0.013033 0.000000
v 0.269858 1.056939 0.000000
v 0.190819 -0.013033 0.190819
v 0.190819 1.056939 0.190819
v -0.000000 -0.013033 0.269858
v -0.000000 1.056939 0.269858
v -0.190819 -0.013033 0.190819
v -0.190819 1.056939 0.190819
v -0.269858 -0.013033 -0.000000
v -0.269858 1.056939 -0.000000
v -0.190819 -0.013033 -0.190819
v -0.190819 1.056939 -0.190819
v 1.135473 1.056939 -1.135473
v 0.000000 1.056939 -1.605801
v 1.605801 1.056939 0.000000
v 1.135473 1.056939 1.135473
v -0.000000 1.056939 1.605801
v -1.135473 1.056939 1.135473
v -1.605801 1.056939 -0.000000
v -1.135473 1.056939 -1.135473
v 0.776603 1.989195 -0.754355
v 0.022247 1.989195 -1.066820
v 1.089067 1.989195 0.000000
v 0.776603 1.989195 0.754355
v 0.022247 1.989195 1.066820
v -0.732108 1.989195 0.754355
v -1.044572 1.989195 0.000000
v -0.732108 1.989195 -0.754355
v 1.096250 1.989195 -1.074003
v 0.022247 1.989195 -1.518869
v 1.541116 1.989195 0.000000
v 1.096250 1.989195 1.074003
v 0.022247 1.989195 1.518869
v -1.051755 1.989195 1.074002
v -1.496622 1.989195 0.000000
v -1.051755 1.989195 -1.074003
v 0.328900 2.945827 -0.545810
v -0.216911 2.945827 -0.771892
v 0.554982 2.945827 0.000000
v 0.328900 2.945827 0.545810
v -0.216911 2.945827 0.771892
v -0.762721 2.945827 0.545810
v -0.988803 2.945827 0.000000
v -0.762721 2.945827 -0.545810
v 0.725882 2.951388 -0.887174
v -0.161292 2.951388 -1.254653
v 1.093361 2.951388 0.000000
v 0.725882 2.951388 0.887174
v -0.161293 2.951388 1.254653
v -1.048467 2.951388 0.887174
v -1.415946 2.951388 -0.000000
v -1.048467 2.951388 -0.887174
v 0.340806 4.008132 -0.502099
v -0.161292 4.008132 -0.710075
v 0.548782 4.008132 -0.000000
v 0.340806 4.008132 0.502099
v -0.161293 4.008132 0.710075
v -0.663391 4.008132 0.502099
v -0.871367 4.008132 -0.000000
v -0.663391 4.008132 -0.502099
v 0.644218 4.041503 -0.805511
v -0.161292 4.041503 -1.139164
v 0.977871 4.041503 -0.000000
v 0.644218 4.041503 0.805511
v -0.161293 4.041503 1.139164
v -0.966803 4.041503 0.805510
v -1.300456 4.041503 -0.000000
v -0.966803 4.041503 -0.805511
v 0.136181 5.014820 -0.297473
v -0.161292 5.014820 -0.420691
v 0.259398 5.014820 0.000000
v 0.136181 5.014820 0.297473
v -0.161293 5.014820 0.420690
v -0.458766 5.014820 0.297473
v -0.581983 5.014820 -0.000000
v -0.458766 5.014820 -0.297473
v -0.083816 5.626619 -0.016296
v -0.100113 5.626619 -0.023046
v -0.077066 5.626619 -0.000000
v -0.083816 5.626619 0.016296
v -0.100113 5.626619 0.023046
v -0.116409 5.626619 0.016296
v -0.123159 5.626619 -0.000000
v -0.116409 5.626619 -0.016296
vt 0.432328 0.557907
vt 0.432328 0.557907
vt 0.432328 0.557907
vt 0.432328 0.557907
vt 0.432328 0.557907
vt 0.432328 0.557907
vt 0.432328 0.557907
vt 0.432328 0.557907
vt 0.432328 0.557907
vt 0.432328 0.557907
vt 0.432328 0.557907
vt 0.432328 0.557907
vt 0.432328 0.557907
vt 0.811289 0.816289
vt 0.811289 0.816289
vt 0.811289 0.816289
vt 0.432328 0.557907
vt 0.432328 0.557907
vt 0.432328 0.557907
vt 0.811289 0.816289
vt 0.811289 0.816289
vt 0.811289 0.816289
vt 0.811289 0.816289
vt 0.811289 0.816289
vt 0.811289 0.816289
vt 0.811289 0.816289
vt 0.811289 0.816289
vt 0.811289 0.816289
vt 0.811289 0.816289
vt 0.811289 0.816289
vt 0.811289 0.816289
vt 0.811289 0.816289
vt 0.811289 0.816289
vt 0.811289 0.816289
vt 0.811289 0.816289
vt 0.811289 0.816289
vt 0.811289 0.816289
vt 0.811289 0.816289
vt 0.811289 0.816289
vt 0.811289 0.816289
vt 0.811289 0.816289
vt 0.811289 0.816289
vt 0.811289 0.816289
vt 0.811289 0.816289
vt 0.811289 0.816289
vt 0.811289 0.816289
vt 0.811289 0.816289
vt 0.811289 0.816289
vt 0.811289 0.816289
vt 0.811289 0.816289
vt 0.811289 0.816289
vt 0.811289 0.816289
vt 0.811289 0.816289
vt 0.811289 0.816289
vt 0.811289 0.816289
vt 0.811289 0.816289
vt 0.811289 0.816289
vt 0.811289 0.816289
vt 0.811289 0.816289
vt 0.811289 0.816289
vt 0.811289 0.816289
vt 0.811289 0.816289
vt 0.811289 0.816289
vt 0.811289 0.816289
vt 0.811289 0.816289
vt 0.811289 0.816289
vt 0.811289 0.816289
vt 0.811289 0.816289
vt 0.811289 0.816289
vt 0.811289 0.816289
vt 0.811289 0.816289
vt 0.811289 0.816289
vt 0.811289 0.816289
vt 0.811289 0.816289
vt 0.811289 0.816289
vt 0.811289 0.816289
vt 0.811289 0.816289
vt 0.811289 0.816289
vt 0.811289 0.816289
vt 0.811289 0.816289
vt 0.811289 0.816289
vt 0.811289 0.816289
vt 0.811289 0.816289
vt 0.811289 0.816289
vt 0.811289 0.816289
vt 0.811289 0.816289
vt 0.811289 0.816289
vt 0.811289 0.816289
vt 0.811289 0.816289
vt 0.811289 0.816289
vt 0.811289 0.816289
vt 0.811289 0.816289
vt 0.811289 0.816289
vt 0.811289 0.816289
vt 0.811289 0.816289
vt 0.811289 0.816289
vn 0.3827 0.0000 -0.9239
vn 0.9239 0.0000 -0.3827
vn 0.9239 0.0000 0.3827
vn 0.3827 0.0000 0.9239
vn -0.3827 0.0000 0.9239
vn -0.9239 0.0000 0.3827
vn 0.0000 -1.0000 0.0000
vn -0.9239 0.0000 -0.3827
vn -0.3827 0.0000 -0.9239
vn -0.3363 0.4774 0.8118
vn 0.8223 0.4558 0.3406
vn 0.3388 0.4648 -0.8180
vn -0.3363 0.4774 -0.8118
vn -0.8074 0.4861 0.3344
vn 0.3388 0.4648 0.8180
vn 0.8223 0.4558 -0.3406
vn -0.8074 0.4861 -0.3344
vn -0.8295 0.4403 0.3436
vn 0.0046 -0.9999 -0.0110
vn 0.2963 0.6327 0.7154
vn 0.6690 0.6897 -0.2771
vn -0.8295 0.4403 -0.3436
vn -0.3244 0.5304 0.7832
vn 0.6690 0.6897 0.2771
vn 0.2963 0.6327 -0.7154
vn -0.3244 0.5304 -0.7832
vn -0.8342 0.4299 -0.3455
vn -0.0050 -0.9999 -0.0121
vn -0.0130 -0.9999 0.0054
vn 0.0046 -0.9999 0.0110
vn 0.0103 -0.9999 -0.0043
vn -0.0130 -0.9999 -0.0054
vn -0.0050 -0.9999 0.0121
vn 0.0103 -0.9999 0.0043
vn 0.0775 -0.9965 -0.0321
vn -0.3455 0.4299 0.8342
vn 0.8342 0.4299 0.3455
vn 0.3455 0.4299 -0.8342
vn -0.3455 0.4299 -0.8342
vn -0.8342 0.4299 0.3455
vn 0.3455 0.4299 0.8342
vn 0.8342 0.4299 -0.3455
vn -0.3162 0.5634 -0.7633
vn -0.0775 -0.9965 -0.0321
vn -0.0321 -0.9965 0.0775
vn 0.0775 -0.9965 0.0321
vn 0.0321 -0.9965 -0.0775
vn -0.0321 -0.9965 -0.0775
vn -0.0775 -0.9965 0.0321
vn 0.0321 -0.9965 0.0775
vn 0.8237 0.4530 0.3412
vn -0.7633 0.5634 0.3162
vn 0.3162 0.5634 0.7633
vn 0.7633 0.5634 -0.3162
vn -0.7633 0.5634 -0.3162
vn -0.3162 0.5634 0.7633
vn 0.7633 0.5634 0.3162
vn 0.3162 0.5634 -0.7633
vn 0.0000 1.0000 0.0000
vn 0.3336 0.4901 -0.8053
vn -0.3225 0.5383 -0.7786
vn -0.7594 0.5695 0.3146
vn 0.3336 0.4901 0.8053
vn 0.8237 0.4530 -0.3412
vn -0.7594 0.5695 -0.3146
vn -0.3225 0.5383 0.7786
vn 0.0000 1.0000 -0.0001
usemtl Material.001
s off
f 2/1/1 3/2/1 1/3/1
f 4/4/2 5/5/2 3/2/2
f 6/6/3 7/7/3 5/5/3
f 8/8/4 9/9/4 7/7/4
f 10/10/5 11/11/5 9/9/5
f 12/12/6 13/13/6 11/11/6
f 12/14/7 23/15/7 14/16/7
f 14/17/8 15/18/8 13/13/8
f 16/19/9 1/3/9 15/18/9
f 7/7/7 11/11/7 15/18/7
f 21/20/10 30/21/10 22/22/10
f 8/23/7 21/20/7 10/24/7
f 16/25/7 23/15/7 24/26/7
f 6/27/7 17/28/7 19/29/7
f 12/14/7 21/20/7 22/22/7
f 16/25/7 18/30/7 2/31/7
f 4/32/7 18/30/7 17/28/7
f 6/27/7 20/33/7 8/23/7
f 32/34/7 39/35/7 40/36/7
f 19/29/11 28/37/11 20/33/11
f 17/28/12 26/38/12 25/39/12
f 18/30/13 32/34/13 26/38/13
f 22/22/14 31/40/14 23/15/14
f 20/33/15 29/41/15 21/20/15
f 19/29/16 25/39/16 27/42/16
f 24/26/17 31/40/17 32/34/17
f 39/35/18 46/43/18 47/44/18
f 30/21/7 37/45/7 38/46/7
f 28/37/7 35/47/7 36/48/7
f 25/39/7 34/49/7 33/50/7
f 32/34/7 34/49/7 26/38/7
f 30/21/7 39/35/7 31/40/7
f 28/37/7 37/45/7 29/41/7
f 25/39/7 35/47/7 27/42/7
f 41/51/19 50/52/19 49/53/19
f 37/45/20 44/54/20 45/55/20
f 33/50/21 43/56/21 35/47/21
f 39/35/22 48/57/22 40/36/22
f 38/46/23 45/55/23 46/43/23
f 36/48/24 43/56/24 44/54/24
f 34/49/25 41/51/25 33/50/25
f 40/36/26 42/58/26 34/49/26
f 55/59/27 64/60/27 56/61/27
f 42/58/28 56/61/28 50/52/28
f 46/43/29 55/59/29 47/44/29
f 44/54/30 53/62/30 45/55/30
f 43/56/31 49/53/31 51/63/31
f 48/57/32 55/59/32 56/61/32
f 45/55/33 54/64/33 46/43/33
f 43/56/34 52/65/34 44/54/34
f 57/66/35 67/67/35 59/68/35
f 53/62/36 62/69/36 54/64/36
f 51/63/37 60/70/37 52/65/37
f 50/52/38 57/66/38 49/53/38
f 50/52/39 64/60/39 58/71/39
f 55/59/40 62/69/40 63/72/40
f 53/62/41 60/70/41 61/73/41
f 51/63/42 57/66/42 59/68/42
f 66/74/43 80/75/43 74/76/43
f 64/60/44 71/77/44 72/78/44
f 62/69/45 69/79/45 70/80/45
f 60/70/46 67/67/46 68/81/46
f 57/66/47 66/74/47 65/82/47
f 64/60/48 66/74/48 58/71/48
f 62/69/49 71/77/49 63/72/49
f 60/70/50 69/79/50 61/73/50
f 75/83/51 84/84/51 76/85/51
f 70/80/52 79/86/52 71/77/52
f 69/79/53 76/85/53 77/87/53
f 67/67/54 73/88/54 75/83/54
f 71/77/55 80/75/55 72/78/55
f 69/79/56 78/89/56 70/80/56
f 67/67/57 76/85/57 68/81/57
f 66/74/58 73/88/58 65/82/58
f 83/90/59 82/91/59 87/92/59
f 73/88/60 82/91/60 81/93/60
f 74/76/61 88/94/61 82/91/61
f 78/89/62 87/92/62 79/86/62
f 76/85/63 85/95/63 77/87/63
f 75/83/64 81/93/64 83/90/64
f 80/75/65 87/92/65 88/94/65
f 77/87/66 86/96/66 78/89/66
f 2/1/1 4/4/1 3/2/1
f 4/4/2 6/6/2 5/5/2
f 6/6/3 8/8/3 7/7/3
f 8/8/4 10/10/4 9/9/4
f 10/10/5 12/12/5 11/11/5
f 12/12/6 14/17/6 13/13/6
f 12/14/7 22/22/7 23/15/7
f 14/17/8 16/19/8 15/18/8
f 16/19/9 2/1/9 1/3/9
f 15/18/7 1/3/7 3/2/7
f 3/2/7 5/5/7 7/7/7
f 7/7/7 9/9/7 11/11/7
f 11/11/7 13/13/7 15/18/7
f 15/18/7 3/2/7 7/7/7
f 21/20/10 29/41/10 30/21/10
f 8/23/7 20/33/7 21/20/7
f 16/25/7 14/16/7 23/15/7
f 6/27/7 4/32/7 17/28/7
f 12/14/7 10/24/7 21/20/7
f 16/25/7 24/26/7 18/30/7
f 4/32/7 2/31/7 18/30/7
f 6/27/7 19/29/7 20/33/7
f 32/34/7 31/40/7 39/35/7
f 19/29/11 27/42/11 28/37/11
f 17/28/12 18/30/12 26/38/12
f 18/30/13 24/26/13 32/34/13
f 22/22/14 30/21/14 31/40/14
f 20/33/15 28/37/15 29/41/15
f 19/29/16 17/28/16 25/39/16
f 24/26/17 23/15/17 31/40/17
f 39/35/18 38/46/18 46/43/18
f 30/21/7 29/41/7 37/45/7
f 28/37/7 27/42/7 35/47/7
f 25/39/7 26/38/7 34/49/7
f 32/34/7 40/36/7 34/49/7
f 30/21/7 38/46/7 39/35/7
f 28/37/7 36/48/7 37/45/7
f 25/39/7 33/50/7 35/47/7
f 41/51/19 42/58/19 50/52/19
f 37/45/20 36/48/20 44/54/20
f 33/50/21 41/51/21 43/56/21
f 39/35/22 47/44/22 48/57/22
f 38/46/23 37/45/23 45/55/23
f 36/48/24 35/47/24 43/56/24
f 34/49/25 42/58/25 41/51/25
f 40/36/26 48/57/26 42/58/26
f 55/59/27 63/72/27 64/60/27
f 42/58/28 48/57/28 56/61/28
f 46/43/29 54/64/29 55/59/29
f 44/54/30 52/65/30 53/62/30
f 43/56/31 41/51/31 49/53/31
f 48/57/32 47/44/32 55/59/32
f 45/55/33 53/62/33 54/64/33
f 43/56/34 51/63/34 52/65/34
f 57/66/35 65/82/35 67/67/35
f 53/62/36 61/73/36 62/69/36
f 51/63/37 59/68/37 60/70/37
f 50/52/38 58/71/38 57/66/38
f 50/52/39 56/61/39 64/60/39
f 55/59/40 54/64/40 62/69/40
f 53/62/41 52/65/41 60/70/41
f 51/63/42 49/53/42 57/66/42
f 66/74/43 72/78/43 80/75/43
f 64/60/44 63/72/44 71/77/44
f 62/69/45 61/73/45 69/79/45
f 60/70/46 59/68/46 67/67/46
f 57/66/47 58/71/47 66/74/47
f 64/60/48 72/78/48 66/74/48
f 62/69/49 70/80/49 71/77/49
f 60/70/50 68/81/50 69/79/50
f 75/83/51 83/90/51 84/84/51
f 70/80/52 78/89/52 79/86/52
f 69/79/53 68/81/53 76/85/53
f 67/67/54 65/82/54 73/88/54
f 71/77/55 79/86/55 80/75/55
f 69/79/56 77/87/56 78/89/56
f 67/67/57 75/83/57 76/85/57
f 66/74/58 74/76/58 73/88/58
f 83/90/59 81/93/59 82/91/59
f 82/91/59 88/94/59 87/92/59
f 87/92/59 86/96/59 83/90/59
f 86/96/67 85/95/67 83/90/67
f 85/95/59 84/84/59 83/90/59
f 73/88/60 74/76/60 82/91/60
f 74/76/61 80/75/61 88/94/61
f 78/89/62 86/96/62 87/92/62
f 76/85/63 84/84/63 85/95/63
f 75/83/64 73/88/64 81/93/64
f 80/75/65 79/86/65 87/92/65
f 77/87/66 85/95/66 86/96/66
